<svg xmlns="http://www.w3.org/2000/svg" xmlns:xlink="http://www.w3.org/1999/xlink" viewBox="0 0 95.48099177622328 95.481" height="95.481" width="95.48099177622328" data-background-color="#ffffff" preserveAspectRatio="xMidYMid meet" id="tight-bounds"><g><svg viewBox="0 0 95.48099177622328 95.481" height="95.481" width="95.48099177622328"><g><svg viewBox="0 0 95.48099177622328 95.481" height="95.481" width="95.48099177622328"><g id="textblocktransform"><svg viewBox="0 0 95.48099177622328 95.481" height="95.481" width="95.48099177622328" id="textblock"><g><svg viewBox="0 0 95.48099177622328 95.481" height="95.481" width="95.48099177622328"><g><svg viewBox="0 0 95.48099177622328 95.481" height="95.481" width="95.48099177622328"><g><svg xmlns="http://www.w3.org/2000/svg" xml:space="preserve" viewBox="5.923999786376953 6.185999870300293 88.58000183105469 88.58000946044922" x="0" y="0" height="95.481" width="95.48099177622328" class="icon-icon-0" data-fill-palette-color="accent" id="icon-0" fill="#ffffff"><path d="M76.758 50.692c3.491-1.21 7.084-3.994 7.23-4.103 0.732-0.586 0.873-1.65 0.286-2.37a1.644 1.644 0 0 0-2.331-0.287c-0.038 0-3.351 2.529-6.293 3.593-3.645 1.28-9.192 1.401-12.059 1.37-0.146-1.261-0.414-2.484-0.886-3.612 2.714-1.542 7.708-4.618 10.536-7.899 2.421-2.803 4.141-7.007 4.204-7.172 0.344-0.879-0.063-1.86-0.937-2.191a1.63 1.63 0 0 0-2.159 0.924c-0.025 0.013-1.631 3.854-3.644 6.249-2.51 2.911-7.198 5.765-9.708 7.185-0.752-1-1.644-1.885-2.637-2.644 1.579-2.682 4.369-7.848 5.179-12.122 0.694-3.631 0.076-8.134 0.057-8.313-0.146-0.924-0.993-1.573-1.917-1.427a1.646 1.646 0 0 0-1.407 1.879c-0.02 0.032 0.521 4.153-0.026 7.243-0.707 3.733-3.299 8.504-4.771 11.007-1.115-0.472-2.325-0.733-3.573-0.892 0.038-3.115-0.103-8.988-1.523-13.09-1.204-3.503-3.968-7.109-4.077-7.249-0.586-0.726-1.637-0.879-2.37-0.293a1.637 1.637 0 0 0-0.287 2.331c0 0.039 2.51 3.351 3.567 6.3 1.248 3.625 1.363 9.116 1.325 12.001-1.268 0.159-2.497 0.433-3.631 0.917-1.529-2.727-4.58-7.708-7.854-10.542-2.79-2.433-6.988-4.166-7.153-4.236-0.873-0.337-1.86 0.064-2.198 0.93a1.64 1.64 0 0 0 0.911 2.159c0.02 0.038 3.854 1.65 6.249 3.676 2.911 2.522 5.758 7.242 7.166 9.752a13.1 13.1 0 0 0-2.611 2.637c-2.663-1.586-7.874-4.427-12.167-5.249-3.631-0.713-8.128-0.115-8.313-0.089-0.923 0.14-1.573 0.981-1.433 1.898a1.65 1.65 0 0 0 1.873 1.427c0.032 0.013 4.16-0.51 7.249 0.051 3.784 0.726 8.612 3.395 11.084 4.867-0.459 1.121-0.727 2.332-0.873 3.58-3.077-0.045-9.071 0.095-13.23 1.542-3.491 1.198-7.096 3.968-7.243 4.077-0.732 0.586-0.873 1.649-0.287 2.369a1.64 1.64 0 0 0 2.331 0.293c0.039 0 3.351-2.522 6.293-3.579 3.688-1.28 9.313-1.376 12.154-1.338 0.166 1.235 0.446 2.434 0.917 3.542-2.688 1.496-7.81 4.611-10.683 7.949-2.427 2.79-4.159 6.994-4.229 7.16-0.337 0.872 0.07 1.859 0.937 2.197a1.65 1.65 0 0 0 2.166-0.917c0.026-0.02 1.644-3.854 3.663-6.249 2.567-2.969 7.427-5.88 9.892-7.262a13.6 13.6 0 0 0 2.567 2.554c-1.561 2.625-4.484 7.943-5.319 12.308-0.701 3.631-0.096 8.134-0.077 8.313 0.146 0.93 0.994 1.573 1.911 1.439a1.65 1.65 0 0 0 1.414-1.886c0.013-0.025-0.51-4.153 0.044-7.242 0.733-3.835 3.465-8.766 4.917-11.205 1.102 0.465 2.293 0.727 3.517 0.886-0.045 3.045 0.089 9.128 1.554 13.326 1.21 3.497 3.988 7.089 4.096 7.242 0.586 0.727 1.643 0.866 2.369 0.28a1.64 1.64 0 0 0 0.287-2.331c-0.007-0.032-2.522-3.351-3.587-6.294-1.299-3.707-1.389-9.396-1.351-12.218 1.224-0.152 2.421-0.414 3.529-0.872 1.497 2.682 4.625 7.815 7.963 10.694 2.803 2.421 7.007 4.147 7.172 4.218 0.879 0.337 1.86-0.07 2.191-0.937a1.636 1.636 0 0 0-0.911-2.16c-0.019-0.038-3.86-1.643-6.262-3.656-2.955-2.554-5.866-7.389-7.249-9.866 0.975-0.733 1.835-1.6 2.587-2.562 2.637 1.567 7.918 4.446 12.256 5.269 3.631 0.7 8.134 0.089 8.313 0.063 0.93-0.14 1.579-0.98 1.433-1.904a1.643 1.643 0 0 0-1.872-1.414c-0.038-0.02-4.16 0.516-7.249-0.032-3.797-0.72-8.663-3.401-11.129-4.86 0.479-1.114 0.771-2.318 0.937-3.567 3.087 0.039 9.05-0.12 13.19-1.566M50.215 60.05c-5.281 0-9.574-4.3-9.574-9.581s4.293-9.574 9.574-9.574 9.574 4.293 9.574 9.574-4.294 9.581-9.574 9.581" fill="#ffffff" data-fill-palette-color="accent"/><path d="M50.208 6.186c-24.416 0-44.284 19.868-44.284 44.284 0 24.422 19.868 44.296 44.284 44.296 24.422 0 44.296-19.874 44.296-44.296 0.001-24.417-19.873-44.284-44.296-44.284m0 84.388c-22.11 0-40.105-17.988-40.105-40.105s17.995-40.105 40.105-40.105c22.117 0 40.112 17.989 40.112 40.105 0 22.117-17.995 40.105-40.112 40.105" fill="#ffffff" data-fill-palette-color="accent"/><path d="M50.221 45.615a4.976 4.976 0 1 0 0 9.95 4.976 4.976 0 1 0 0-9.95" fill="#ffffff" data-fill-palette-color="accent"/></svg></g></svg></g></svg></g></svg></g></svg></g></svg></g><defs/></svg>